<?xml version="1.0" ?>

<!-- Uploaded to: SVG Repo, www.svgrepo.com, Generator: SVG Repo Mixer Tools -->
<svg width="800px" height="800px" viewBox="0 0 20 20" version="1.1" xmlns="http://www.w3.org/2000/svg">

<g id="layer1">

<path d="M 3 1 L 3 3 L 2 3 L 2 4 L 3 4 L 3 5 L 2 5 L 2 6 L 3 6 L 3 7 L 2 7 L 2 8 L 3 8 L 3 9 L 2 9 L 2 10 L 3 10 L 3 11 L 2 11 L 2 12 L 3 12 L 3 13 L 2 13 L 2 14 L 3 14 L 3 15 L 2 15 L 2 16 L 3 16 L 3 17 L 2 17 L 2 18 L 3 18 L 3 20 L 18 20 L 18 1 L 3 1 z M 4 2 L 17 2 L 17 19 L 4 19 L 4 18 L 5 18 L 5 17 L 4 17 L 4 16 L 5 16 L 5 15 L 4 15 L 4 14 L 5 14 L 5 13 L 4 13 L 4 12 L 5 12 L 5 11 L 4 11 L 4 10 L 5 10 L 5 9 L 4 9 L 4 8 L 5 8 L 5 7 L 4 7 L 4 6 L 5 6 L 5 5 L 4 5 L 4 4 L 5 4 L 5 3 L 4 3 L 4 2 z M 7 6 L 7 7 L 15 7 L 15 6 L 7 6 z M 8 8 L 8 9 L 14 9 L 14 8 L 8 8 z " style="fill:#222222; fill-opacity:1; stroke:none; stroke-width:0px;"/>

</g>

</svg>